<?xml version="1.0" encoding="UTF-8" standalone="no"?>
<!-- Created with Inkscape (http://www.inkscape.org/) -->

<svg
   version="1.1"
   id="svg1"
   width="88.045021"
   height="116.00076"
   viewBox="0 0 88.045021 116.00076"
   xmlns="http://www.w3.org/2000/svg"
   xmlns:svg="http://www.w3.org/2000/svg">
  <defs
     id="defs1" />
  <g
     id="g1"
     transform="translate(-68.477486,-47.61377)">
    <path
       style="fill:#e11c23;fill-opacity:1"
       d="m 70.802491,129.86442 0.26468,-33.750651 2.54109,-2.25 c 2.52734,-2.237829 2.72199,-2.25 35.985319,-2.25 h 33.44424 v 11.000001 11 h -17.74235 -17.74234 l 24.48469,24.5 24.48469,24.5 h -15.59789 -15.5979 l -15.85111,-16 c -8.71811,-8.8 -16.162659,-16 -16.543429,-16 -0.38078,0 -0.62528,7.42472 -0.54334,16.49938 l 0.14898,16.49939 -11,0.001 -11,0.001 z m 6.73533,-50.121353 c -9.50831,-5.905375 -11.90984,-17.253389 -5.40209,-25.52665 2.73203,-3.473215 8.96486,-6.602648 13.15036,-6.602648 4.21144,0 11.56265,3.713705 14.00957,7.077394 5.975159,8.213851 2.871529,20.701624 -6.3273,25.458523 -3.99165,2.06416 -11.78289,1.858849 -15.43054,-0.406619 z"
       id="path2" />
  </g>
</svg>
